<svg width="56" height="56" viewBox="0 0 56 56" fill="none" xmlns="http://www.w3.org/2000/svg">
<path d="M54.25 12.25V50.75C54.25 52.6838 52.6838 54.25 50.75 54.25H47.25C49.1838 54.25 50.75 52.6838 50.75 50.75V12.25C50.75 10.3162 49.1838 8.75 47.25 8.75H50.75C52.6838 8.75 54.25 10.3162 54.25 12.25Z" fill="#ECC19C"/>
<path d="M50.75 12.25V50.75C50.75 52.6838 49.1838 54.25 47.25 54.25H43.75C45.6838 54.25 47.25 52.6838 47.25 50.75V12.25C47.25 10.3162 45.6838 8.75 43.75 8.75H47.25C49.1838 8.75 50.75 10.3162 50.75 12.25Z" fill="#FCD770"/>
<path d="M40.25 54.25C42.1838 54.25 43.75 52.6838 43.75 50.75V42V19.25V12.25C43.75 10.3162 42.1838 8.75 40.25 8.75H42H43.75C45.6838 8.75 47.25 10.3162 47.25 12.25V50.75C47.25 52.6838 45.6838 54.25 43.75 54.25H42.875H40.25Z" fill="#5CD6B3"/>
<path d="M43.75 42V50.75C43.75 52.6838 42.1838 54.25 40.25 54.25H39.375H35.875H5.25C3.31625 54.25 1.75 52.6838 1.75 50.75H36.75L43.75 42Z" fill="#CCD1D9"/>
<path d="M43.75 19.25V42H40.25V38.5V31.5V24.5H33.25H26.25H19.25H12.25H5.25V31.5V38.5V45.5H12.25H19.25H26.25H33.25H36.75V50.75H1.75V19.25H43.75Z" fill="#E6E9ED"/>
<path d="M43.75 42L36.75 50.75V45.5V42H40.25H43.75Z" fill="#FCD770"/>
<path d="M10.5 8.75H17.5H21H26.25C26.25 12.6175 29.3825 15.75 33.25 15.75V12.25C31.3162 12.25 29.75 10.6838 29.75 8.75H35H36.75H38.5H40.25C42.1838 8.75 43.75 10.3162 43.75 12.25V19.25H1.75V12.25C1.75 10.3162 3.31625 8.75 5.25 8.75H7C7 12.6175 10.1325 15.75 14 15.75V12.25C12.0662 12.25 10.5 10.6838 10.5 8.75Z" fill="#FF826E"/>
<path d="M21 8.75H17.5C17.5 6.81625 15.9338 5.25 14 5.25C12.0662 5.25 10.5 6.81625 10.5 8.75C10.5 10.6838 12.0662 12.25 14 12.25V15.75C10.1325 15.75 7 12.6175 7 8.75C7 4.8825 10.1325 1.75 14 1.75C17.8675 1.75 21 4.8825 21 8.75Z" fill="#AAB2BD"/>
<path d="M40.25 8.75H38.5H36.75C36.75 6.81625 35.1838 5.25 33.25 5.25C31.3162 5.25 29.75 6.81625 29.75 8.75C29.75 10.6838 31.3162 12.25 33.25 12.25V15.75C29.3825 15.75 26.25 12.6175 26.25 8.75C26.25 4.8825 29.3825 1.75 33.25 1.75C37.1175 1.75 40.25 4.8825 40.25 8.75Z" fill="#AAB2BD"/>
<path d="M5.25 24.5V45.5H36.75V42H40.25V24.5H5.25Z" fill="#5CD6B3"/>
<path d="M50.75 7.875H47.25H43.75H42H41.0734C40.6368 3.94362 37.2969 0.875 33.25 0.875C29.2031 0.875 25.8633 3.94362 25.4266 7.875H21.8234C21.3867 3.94362 18.0469 0.875 14 0.875C9.95312 0.875 6.61325 3.94362 6.17663 7.875H5.25C2.83763 7.875 0.875 9.83763 0.875 12.25V50.75C0.875 53.1624 2.83763 55.125 5.25 55.125H35.875H39.375H40.25H42.875H43.75H47.25H50.75C53.1624 55.125 55.125 53.1624 55.125 50.75V12.25C55.125 9.83763 53.1624 7.875 50.75 7.875ZM33.25 2.625C36.3291 2.625 38.878 4.91138 39.305 7.875H38.5H37.5366C37.1297 5.88088 35.3623 4.375 33.25 4.375C30.8376 4.375 28.875 6.33763 28.875 8.75C28.875 10.8631 30.3809 12.6306 32.375 13.0366V14.812C29.4105 14.3859 27.125 11.83 27.125 8.74912C27.125 5.3725 29.8734 2.625 33.25 2.625ZM35.714 7.875H35H30.786C31.1482 6.85913 32.1108 6.125 33.25 6.125C34.3893 6.125 35.3518 6.85913 35.714 7.875ZM14 2.625C17.0791 2.625 19.628 4.91138 20.055 7.875H18.2866C17.8797 5.88088 16.1123 4.375 14 4.375C11.5876 4.375 9.625 6.33763 9.625 8.75C9.625 10.8631 11.1309 12.6306 13.125 13.0366V14.812C10.1605 14.3867 7.875 11.8309 7.875 8.75C7.875 5.3725 10.6234 2.625 14 2.625ZM16.464 7.875H11.5369C11.8983 6.85913 12.8608 6.125 14 6.125C15.1392 6.125 16.1018 6.85913 16.464 7.875ZM5.25 9.625H6.17663C6.61325 13.5564 9.95312 16.625 14 16.625H14.875V11.375H14C12.8608 11.375 11.8982 10.6409 11.536 9.625H25.4266C25.8633 13.5564 29.2031 16.625 33.25 16.625H34.125V11.375H33.25C32.1108 11.375 31.1482 10.6409 30.786 9.625H35H38.5H40.25C41.6973 9.625 42.875 10.8027 42.875 12.25V18.375H2.625V12.25C2.625 10.8027 3.80275 9.625 5.25 9.625ZM42.875 41.125H41.125V23.625H4.375V46.375H35.875V49.875H2.625V20.125H42.875V41.125ZM35.875 41.125V44.625H34.125V39.375H39.375V41.125H35.875ZM20.125 32.375H25.375V37.625H20.125V32.375ZM18.375 37.625H13.125V32.375H18.375V37.625ZM27.125 32.375H32.375V37.625H27.125V32.375ZM34.125 32.375H39.375V37.625H34.125V32.375ZM39.375 30.625H34.125V25.375H39.375V30.625ZM32.375 30.625H27.125V25.375H32.375V30.625ZM25.375 30.625H20.125V25.375H25.375V30.625ZM18.375 30.625H13.125V25.375H18.375V30.625ZM11.375 30.625H6.125V25.375H11.375V30.625ZM6.125 32.375H11.375V37.625H6.125V32.375ZM6.125 39.375H11.375V44.625H6.125V39.375ZM13.125 39.375H18.375V44.625H13.125V39.375ZM20.125 39.375H25.375V44.625H20.125V39.375ZM27.125 39.375H32.375V44.625H27.125V39.375ZM37.625 42.875H41.9291L37.625 48.2554V42.875ZM39.375 53.375H35.875H5.25C4.11075 53.375 3.14825 52.6409 2.786 51.625H37.17L42.875 44.4946V50.75C42.875 52.1973 41.6973 53.375 40.25 53.375H39.375ZM43.7272 53.375C44.2829 52.6418 44.625 51.7388 44.625 50.75V12.25C44.625 11.2612 44.2829 10.3582 43.7272 9.625H43.75C45.1973 9.625 46.375 10.8027 46.375 12.25V50.75C46.375 52.1973 45.1973 53.375 43.75 53.375H43.7272ZM47.2272 53.375C47.7829 52.6418 48.125 51.7388 48.125 50.75V12.25C48.125 11.2612 47.7829 10.3582 47.2272 9.625H47.25C48.6973 9.625 49.875 10.8027 49.875 12.25V50.75C49.875 52.1973 48.6973 53.375 47.25 53.375H47.2272ZM53.375 50.75C53.375 52.1973 52.1973 53.375 50.75 53.375H50.7272C51.2829 52.6418 51.625 51.7388 51.625 50.75V12.25C51.625 11.2612 51.2829 10.3582 50.7272 9.625H50.75C52.1973 9.625 53.375 10.8027 53.375 12.25V50.75Z" fill="#31415F"/>
</svg>
