<svg width="56" height="56" viewBox="0 0 56 56" fill="none" xmlns="http://www.w3.org/2000/svg">
<path d="M37.333 10.4999C37.333 11.1533 36.8197 11.6666 36.1663 11.6666H17.4997C16.8463 11.6666 16.333 11.1533 16.333 10.4999C16.333 9.84658 16.8463 9.33325 17.4997 9.33325H36.1663C36.8197 9.33325 37.333 9.84658 37.333 10.4999Z" fill="#31415F"/>
<path d="M37.333 15.1667C37.333 15.82 36.8197 16.3333 36.1663 16.3333H17.4997C16.8463 16.3333 16.333 15.82 16.333 15.1667C16.333 14.5133 16.8463 14 17.4997 14H36.1663C36.8197 14 37.333 14.5133 37.333 15.1667Z" fill="#31415F"/>
<path d="M46.6663 19.8332C46.6663 20.4865 46.153 20.9998 45.4997 20.9998H17.4997C16.8463 20.9998 16.333 20.4865 16.333 19.8332C16.333 19.1798 16.8463 18.6665 17.4997 18.6665H45.4997C46.153 18.6665 46.6663 19.1798 46.6663 19.8332Z" fill="#31415F"/>
<path d="M22.586 32.6665H19.8327C19.1793 32.6665 18.666 33.1798 18.666 33.8332V43.1665C18.666 43.8198 19.1793 44.3332 19.8327 44.3332H22.586C24.2893 44.3332 25.666 42.9565 25.666 41.2532V35.7465C25.666 34.0432 24.2893 32.6665 22.586 32.6665ZM23.3327 41.2532C23.3327 41.6732 23.006 41.9998 22.586 41.9998H20.9993V34.9998H22.586C23.006 34.9998 23.3327 35.3265 23.3327 35.7465V41.2532Z" fill="#31415F"/>
<path d="M31.5 32.6665C29.5633 32.6665 28 34.2298 28 36.1665V40.8332C28 42.7698 29.5633 44.3332 31.5 44.3332C33.4367 44.3332 35 42.7698 35 40.8332V36.1665C35 34.2298 33.4367 32.6665 31.5 32.6665ZM32.6667 40.8332C32.6667 41.4865 32.1533 41.9998 31.5 41.9998C30.8467 41.9998 30.3333 41.4865 30.3333 40.8332V36.1665C30.3333 35.5132 30.8467 34.9998 31.5 34.9998C32.1533 34.9998 32.6667 35.5132 32.6667 36.1665V40.8332Z" fill="#31415F"/>
<path d="M44.333 43.1665C44.333 43.8198 43.8197 44.3332 43.1663 44.3332H40.8563C38.9197 44.3332 37.333 42.7465 37.333 40.8098V36.1898C37.333 34.2532 38.9197 32.6665 40.8563 32.6665H43.1663C43.8197 32.6665 44.333 33.1798 44.333 33.8332C44.333 34.4865 43.8197 34.9998 43.1663 34.9998H40.8563C40.203 34.9998 39.6663 35.5365 39.6663 36.1898V40.8098C39.6663 41.4632 40.203 41.9998 40.8563 41.9998H43.1663C43.8197 41.9998 44.333 42.5132 44.333 43.1665Z" fill="#31415F"/>
<path d="M52.4997 23.3333H51.333V11.6666C51.333 11.3633 51.2163 11.0599 50.983 10.8499L42.8163 2.68325C42.6063 2.44992 42.303 2.33325 41.9997 2.33325H12.833C12.1797 2.33325 11.6663 2.84659 11.6663 3.49992V13.9999H3.49967C2.84634 13.9999 2.33301 14.5133 2.33301 15.1666V48.9999C2.33301 49.8866 2.58967 50.7266 3.00967 51.4266H3.03301C3.84967 52.7566 5.34301 53.6666 7.06967 53.6666H48.9997C51.5663 53.6666 53.6663 51.5666 53.6663 48.9999V24.4999C53.6663 23.8466 53.153 23.3333 52.4997 23.3333ZM41.9997 5.15659L48.5097 11.6666H41.9997V5.15659ZM13.9997 4.66659H39.6663V12.8333C39.6663 13.4866 40.1797 13.9999 40.833 13.9999H48.9997V23.3333H13.9997V4.66659ZM9.33301 24.4999V48.9999C9.33301 50.2599 8.30634 51.3099 6.99967 51.3333C5.71634 51.3333 4.66634 50.2833 4.66634 48.9999V16.3333H11.6663V23.3333H10.4997C9.84634 23.3333 9.33301 23.8466 9.33301 24.4999ZM51.333 48.9999C51.333 50.2833 50.283 51.3333 48.9997 51.3333H11.0363C11.433 50.6566 11.6663 49.8399 11.6663 48.9999V25.6666H51.333V48.9999Z" fill="#31415F"/>
<path d="M40.8333 14.0001C40.18 14.0001 39.6667 13.4867 39.6667 12.8334V4.66675H14V23.3334H49V14.0001H40.8333ZM17.5 9.33342H36.1667C36.82 9.33342 37.3333 9.84675 37.3333 10.5001C37.3333 11.1534 36.82 11.6667 36.1667 11.6667H17.5C16.8467 11.6667 16.3333 11.1534 16.3333 10.5001C16.3333 9.84675 16.8467 9.33342 17.5 9.33342ZM17.5 14.0001H36.1667C36.82 14.0001 37.3333 14.5134 37.3333 15.1667C37.3333 15.8201 36.82 16.3334 36.1667 16.3334H17.5C16.8467 16.3334 16.3333 15.8201 16.3333 15.1667C16.3333 14.5134 16.8467 14.0001 17.5 14.0001ZM45.5 21.0001H17.5C16.8467 21.0001 16.3333 20.4867 16.3333 19.8334C16.3333 19.1801 16.8467 18.6667 17.5 18.6667H45.5C46.1533 18.6667 46.6667 19.1801 46.6667 19.8334C46.6667 20.4867 46.1533 21.0001 45.5 21.0001Z" fill="white"/>
<path d="M11.6666 25.6667V49.0001C11.6666 49.8401 11.4333 50.6567 11.0366 51.3334H49C50.2833 51.3334 51.3333 50.2834 51.3333 49.0001V25.6667H11.6666ZM25.6666 41.2534C25.6666 42.9567 24.29 44.3334 22.5866 44.3334H19.8333C19.18 44.3334 18.6666 43.8201 18.6666 43.1667V33.8334C18.6666 33.1801 19.18 32.6667 19.8333 32.6667H22.5866C24.29 32.6667 25.6666 34.0434 25.6666 35.7467V41.2534ZM35 40.8334C35 42.7701 33.4366 44.3334 31.5 44.3334C29.5633 44.3334 28 42.7701 28 40.8334V36.1667C28 34.2301 29.5633 32.6667 31.5 32.6667C33.4366 32.6667 35 34.2301 35 36.1667V40.8334ZM40.8566 42.0001H43.1666C43.82 42.0001 44.3333 42.5134 44.3333 43.1667C44.3333 43.8201 43.82 44.3334 43.1666 44.3334H40.8566C38.92 44.3334 37.3333 42.7467 37.3333 40.8101V36.1901C37.3333 34.2534 38.92 32.6667 40.8566 32.6667H43.1666C43.82 32.6667 44.3333 33.1801 44.3333 33.8334C44.3333 34.4867 43.82 35.0001 43.1666 35.0001H40.8566C40.2033 35.0001 39.6666 35.5367 39.6666 36.1901V40.8101C39.6666 41.4634 40.2033 42.0001 40.8566 42.0001Z" fill="white"/>
<path d="M23.3333 35.7467V41.2533C23.3333 41.6733 23.0067 42 22.5867 42H21V35H22.5867C23.0067 35 23.3333 35.3267 23.3333 35.7467Z" fill="white"/>
<path d="M32.6663 36.1667V40.8333C32.6663 41.4867 32.153 42 31.4997 42C30.8463 42 30.333 41.4867 30.333 40.8333V36.1667C30.333 35.5133 30.8463 35 31.4997 35C32.153 35 32.6663 35.5133 32.6663 36.1667Z" fill="white"/>
<path d="M42 5.15674V11.6667H48.51L42 5.15674Z" fill="#2C98F6"/>
<path d="M11.667 16.3333H4.66699V48.9999C4.66699 50.2833 5.71699 51.3333 7.00033 51.3333C8.30699 51.3099 9.33366 50.2599 9.33366 48.9999V24.4999C9.33366 23.8466 9.84699 23.3333 10.5003 23.3333H11.667V16.3333Z" fill="#2C98F6"/>
</svg>
