<svg width="56" height="56" viewBox="0 0 56 56" fill="none" xmlns="http://www.w3.org/2000/svg">
<g clip-path="url(#clip0)">
<path d="M54.4252 22.8265L27.9994 45.5273L1.57471 22.8243C1.63267 22.7029 1.71688 22.5935 1.82078 22.5038L26.4464 1.39973C27.3399 0.634173 28.6589 0.634173 29.5524 1.39973L54.1781 22.5038C54.2831 22.5946 54.3662 22.7051 54.4252 22.8265Z" fill="#6354B1"/>
<path d="M47.0354 6.98284V29.0811L39.2131 35.7448L27.9994 45.5274L16.204 35.284L8.96337 28.9695L9.94765 27.6247L8.854 26.2595V6.98284C8.854 6.32337 9.3877 5.78967 10.0472 5.78967H42.6707L45.9516 5.89904C46.6111 5.89904 47.0354 6.32337 47.0354 6.98284Z" fill="#EEF5F6"/>
<path d="M29.6399 44.1176L27.9994 45.5273L8.854 29.0788V26.2594L29.6399 44.1176Z" fill="#DEECF1"/>
<path d="M29.4226 33.6701L35.6203 38.9808L27.9998 45.5274L20.3804 38.9808L26.577 33.6701C27.395 32.969 28.6046 32.969 29.4226 33.6701Z" fill="#7CA1B1"/>
<path d="M40.46 16.7162L37.1785 16.8256H15.539C15.2371 16.8256 14.9922 16.5807 14.9922 16.2788V11.973C14.9922 11.671 15.2371 11.4261 15.539 11.4261H37.1785L40.46 11.5355C40.7619 11.5355 40.8974 11.671 40.8974 11.973V16.2788C40.8974 16.5807 40.762 16.7162 40.46 16.7162Z" fill="#FFE177"/>
<path d="M25.2657 27.5151L21.9844 27.6244H15.539C15.2371 27.6244 14.9922 27.3796 14.9922 27.0776V22.7718C14.9922 22.4698 15.2371 22.225 15.539 22.225H21.9875L25.2657 22.3343C25.5676 22.3343 25.7032 22.4698 25.7032 22.7718V27.0776C25.7032 27.3797 25.5676 27.5151 25.2657 27.5151Z" fill="#FD8087"/>
<path d="M41.006 11.9731V16.2788C41.006 16.5806 40.7621 16.8256 40.4592 16.8256H37.1782C37.4812 16.8256 37.725 16.5806 37.725 16.2788V11.9731C37.725 11.6712 37.4812 11.4263 37.1782 11.4263H40.4592C40.7621 11.4263 41.006 11.6712 41.006 11.9731Z" fill="#FFC344"/>
<path d="M25.8126 22.7718V27.0775C25.8126 27.3793 25.5677 27.6243 25.2658 27.6243H21.9849C22.2867 27.6243 22.5317 27.3793 22.5317 27.0775V22.7718C22.5317 22.47 22.2867 22.225 21.9849 22.225H25.2658C25.5677 22.225 25.8126 22.47 25.8126 22.7718Z" fill="#E6646E"/>
<path d="M47.1448 6.98284V29.0811L27.9994 45.5274L26.3589 44.1176L43.8638 29.0811V6.98284C43.8638 6.32337 43.3301 5.78967 42.6706 5.78967H45.9516C46.6111 5.78967 47.1448 6.32337 47.1448 6.98284Z" fill="#DEECF1"/>
<path d="M37.5321 37.3392L35.6204 38.9807L29.4227 33.67C28.6047 32.969 27.3951 32.969 26.5771 33.67L20.3804 38.9807L18.4688 37.3381L26.5771 30.3891C27.3951 29.688 28.6047 29.688 29.4227 30.3891L37.5321 37.3392Z" fill="#DEECF1"/>
<path d="M54.4123 23.2509V54.1956C54.4123 54.7392 54.0809 55.0705 53.5373 55.0705L50.2564 55.1799H2.46182C1.91828 55.1799 1.47754 54.7392 1.47754 54.1956V23.2509C1.47754 23.1174 1.50488 22.9862 1.55628 22.8659C1.56175 22.8517 1.56831 22.8386 1.57487 22.8243L27.9996 45.5274L51.1931 25.6032L54.316 22.9359C54.3784 23.0671 54.4123 23.1021 54.4123 23.2509Z" fill="#FFE177"/>
<path d="M54.5216 23.2509V54.1956C54.5216 54.7392 54.0808 55.1799 53.5373 55.1799H50.2563C50.7999 55.1799 51.2406 54.7392 51.2406 54.1956V25.5628L54.4253 22.8265C54.4877 22.9578 54.5216 23.1021 54.5216 23.2509Z" fill="#FFC344"/>
<path d="M29.3137 33.6704C28.4946 32.9685 27.3955 33.0778 26.5764 33.7797L26.3592 33.8565L1.78906 54.9126C1.96514 55.0778 2.20137 55.1798 2.46187 55.1798H50.4014L53.5377 55.0704C53.7982 55.0704 53.9251 55.0778 54.1012 54.9126L29.3137 33.6704Z" fill="#B3DAFE"/>
<path d="M54.2097 54.9131C54.0336 55.0782 53.7974 55.1799 53.5371 55.1799H50.2562C50.5165 55.1799 50.7527 55.0782 50.9288 54.9131L26.3589 33.8571L26.5765 33.6701C27.3946 32.969 28.6041 32.969 29.4222 33.6701L54.2097 54.9131Z" fill="#8AC9FE"/>
<path d="M55.2231 22.6128C55.132 22.3324 54.9338 22.0712 54.712 21.8811L47.9656 16.0996V6.98247C47.9656 5.87242 47.0624 4.9694 45.9524 4.9694H34.978L30.086 0.777009C28.8771 -0.259003 27.1223 -0.259003 25.9136 0.777009L21.0216 4.9694H16.0064C15.5534 4.9694 15.1861 5.33664 15.1861 5.78963C15.1861 6.24262 15.5534 6.60987 16.0064 6.60987H45.9524C46.1579 6.60987 46.3251 6.77698 46.3251 6.98247V28.7432L35.6296 37.9091L29.9568 33.0477C28.8228 32.0758 27.1766 32.0758 26.0428 33.0477L20.37 37.9091L9.67446 28.7432V6.98247C9.67446 6.77698 9.84168 6.60987 10.0472 6.60987H12.4318C12.8848 6.60987 13.252 6.24262 13.252 5.78963C13.252 5.33664 12.8848 4.9694 12.4318 4.9694H10.0471C8.93701 4.9694 8.03388 5.87242 8.03388 6.98247V16.0996L1.2876 21.881C0.894111 22.2181 0.657227 22.7327 0.657227 23.2514V40.1233C0.657227 40.5763 1.02447 40.9435 1.47746 40.9435C1.93045 40.9435 2.2977 40.5763 2.2977 40.1233V24.582L19.1094 38.9893L2.2977 53.3964V43.7095C2.2977 43.2565 1.93045 42.8892 1.47746 42.8892C1.02447 42.8892 0.657227 43.2565 0.657227 43.7095V54.1955C0.657227 54.7053 0.870707 55.1655 1.21182 55.4939C1.22833 55.5103 1.24539 55.5258 1.263 55.5405C1.58212 55.8253 2.00143 56 2.46174 56H53.5376C53.9979 56 54.4172 55.8252 54.7363 55.5405C54.754 55.5258 54.771 55.5105 54.7875 55.4939C55.1286 55.1654 55.3421 54.7053 55.3421 54.1955V23.2514C55.3422 23.0301 55.2996 22.8147 55.2231 22.6128ZM26.981 2.02256C27.5712 1.51664 28.4281 1.51664 29.0185 2.02256L32.457 4.96929H23.5425L26.981 2.02256ZM8.03399 27.3373L2.73789 22.7987L8.03399 18.2599V27.3373ZM47.9656 18.2599L53.2617 22.7987L47.9656 27.3373V18.2599ZM27.1102 34.2931C27.6256 33.8514 28.3739 33.8514 28.8893 34.2931L41.4844 45.0868C41.8282 45.3815 42.3462 45.3417 42.6409 44.9977C42.9357 44.6537 42.8959 44.1359 42.5518 43.8411L36.89 38.9892L53.7016 24.5819V53.3963L45.2669 46.168C44.9228 45.8731 44.4051 45.913 44.1104 46.2571C43.8156 46.6011 43.8554 47.1189 44.1994 47.4136L52.3044 54.3595H3.69483L27.1102 34.2931Z" fill="#31415F"/>
<path d="M41.007 21.4048H31.5727C31.1197 21.4048 30.7524 21.772 30.7524 22.225C30.7524 22.678 31.1197 23.0453 31.5727 23.0453H41.007C41.46 23.0453 41.8273 22.678 41.8273 22.225C41.8273 21.772 41.46 21.4048 41.007 21.4048Z" fill="#31415F"/>
<path d="M41.007 26.8043H31.5727C31.1197 26.8043 30.7524 27.1716 30.7524 27.6246C30.7524 28.0775 31.1197 28.4448 31.5727 28.4448H41.007C41.46 28.4448 41.8273 28.0775 41.8273 27.6246C41.8273 27.1716 41.46 26.8043 41.007 26.8043Z" fill="#31415F"/>
<path d="M15.5389 17.6459H40.4599C41.2136 17.6459 41.8269 17.0327 41.8269 16.2788V11.9729C41.8269 11.219 41.2136 10.6058 40.4599 10.6058H15.5389C14.7851 10.6058 14.1719 11.219 14.1719 11.9729V16.2788C14.1719 17.0327 14.7852 17.6459 15.5389 17.6459ZM15.8123 12.2464H40.1865V16.0055H15.8123V12.2464Z" fill="#31415F"/>
<path d="M15.5389 28.4447H25.2656C26.0195 28.4447 26.6327 27.8315 26.6327 27.0776V22.7718C26.6327 22.018 26.0195 21.4048 25.2656 21.4048H15.5389C14.7851 21.4048 14.1719 22.018 14.1719 22.7718V27.0776C14.1719 27.8315 14.7852 28.4447 15.5389 28.4447ZM15.8123 23.0453H24.9922V26.8042H15.8123V23.0453Z" fill="#31415F"/>
</g>
<defs>
<clipPath id="clip0">
<rect width="56" height="56" fill="white"/>
</clipPath>
</defs>
</svg>
