<svg width="1341" height="596" viewBox="0 0 1341 596" fill="none" xmlns="http://www.w3.org/2000/svg">
<path d="M615 79.8983H692.439C703.485 79.8983 712.439 70.944 712.439 59.8983V21C712.439 9.95433 721.393 1 732.439 1H895.493C906.539 1 915.493 9.95431 915.493 21V51C915.493 62.0457 924.448 71 935.493 71H1320C1331.05 71 1340 79.9543 1340 91V190.831V323.881C1340 334.927 1331.05 343.881 1320 343.881H1221C1209.95 343.881 1201 352.836 1201 363.881V383.034V596" stroke="#4D4DCB" stroke-opacity="0.3" stroke-dasharray="2 2"/>
<path d="M1 137V27C1 15.9543 9.95431 7 21 7H447.738C458.784 7 467.738 15.9543 467.738 27V59.6038C467.738 70.6495 476.692 79.6038 487.738 79.6038H631" stroke="#4D4DCB" stroke-opacity="0.3" stroke-dasharray="2 2"/>
<path d="M1 138V321.087V480.74C1 491.786 9.95431 500.74 21 500.74H189C200.046 500.74 209 509.695 209 520.74V594" stroke="#4D4DCB" stroke-opacity="0.3" stroke-dasharray="2 2"/>
</svg>
