<svg width="140" height="30" viewBox="0 0 140 30" fill="none" xmlns="http://www.w3.org/2000/svg">
<path d="M27.027 6.66516V23.5343L13.7859 29.1582V21.7203L21.2225 18.6367V9.02363L27.027 6.66516Z" fill="#7272E9"/>
<path d="M13.7859 0.862L27.027 6.66517L21.2225 9.02364L13.7859 5.75953L6.34928 9.02364L0.725342 6.66517L13.7859 0.862Z" fill="#7272E9"/>
<path d="M13.7859 21.7203V29.1582L0.725342 23.5343V6.66516L6.34928 9.02363V18.6367L13.7859 21.7203Z" fill="#7272E9"/>
<path d="M27.9339 6.66647V6.48453V6.30259L27.7519 6.122L14.1483 0.135534C14.0477 0.0481327 13.919 0 13.7858 0C13.6525 0 13.5238 0.0481327 13.4232 0.135534L0.182117 5.75948L0.000173868 5.94006V6.122V6.30259V23.1717C-0.00331436 23.3586 0.0457463 23.5427 0.141767 23.703C0.237787 23.8634 0.376908 23.9935 0.543287 24.0787L13.6025 29.7026H14.6887L27.7479 24.0787C27.9144 23.9938 28.0537 23.8637 28.1498 23.7033C28.2458 23.5429 28.2948 23.3586 28.291 23.1717L27.9284 6.66647H27.9339ZM13.7858 1.94953L24.4878 6.66647L21.2223 8.11659L14.1483 5.03306C14.0477 4.94566 13.919 4.89753 13.7858 4.89753C13.6525 4.89753 13.5238 4.94566 13.4232 5.03306L6.34917 7.936H6.16723L3.0837 6.66647L13.7858 1.94953ZM12.8788 27.7067L1.63223 22.8037V7.936L5.44217 9.56534V18.4588C5.43853 18.6457 5.48752 18.8299 5.58356 18.9903C5.67959 19.1507 5.81881 19.2808 5.98529 19.3658L12.8788 22.2606V27.7067ZM13.7858 20.8146L7.25617 18.099V9.75L13.7858 6.84706L20.3153 9.75V18.0936L13.7858 20.8146ZM25.9393 22.8037L14.6928 27.7013V22.4466L21.5849 19.5451C21.7516 19.4603 21.8909 19.3302 21.987 19.1698C22.0831 19.0093 22.1319 18.825 22.128 18.6381V9.56806L25.9379 7.93872L25.9393 22.8037Z" fill="#4949A3"/>
<path d="M21.2225 18.6367V9.02364L13.7859 5.75952V15.3726L21.2225 18.6367Z" fill="white"/>
<path d="M21.2223 18.6367L13.7857 15.3726L6.34912 18.6367L13.7857 21.7203L21.2223 18.6367Z" fill="white"/>
<path d="M13.7857 15.3726V5.75952L6.34912 9.02364V18.6367L13.7857 15.3726Z" fill="white"/>
<path d="M21.5848 8.11661L14.1482 5.03308H13.0619L5.98789 8.11661C5.624 8.29855 5.26147 8.65972 5.26147 9.02361V18.6367C5.26147 19.0006 5.44342 19.3631 5.98789 19.5437L13.4231 22.8038C13.5227 22.8931 13.6518 22.9425 13.7856 22.9425C13.9194 22.9425 14.0485 22.8931 14.1482 22.8038L21.5848 19.5451C21.9486 19.3645 22.3112 19.002 22.3112 18.6381V9.02497C22.3112 8.66108 21.9486 8.29855 21.5848 8.11661ZM7.26149 9.75002L12.8841 7.39155V15.0101L7.26149 17.3726V9.75002ZM13.7911 20.8146L8.7116 18.6422L13.7911 16.4697L18.8705 18.6422L13.7911 20.8146ZM20.3207 17.1866L14.6981 14.8281V7.20961L20.3207 9.56808V17.1866Z" fill="#4949A3"/>
<path d="M66.8685 23.2626C66.8723 23.5654 66.7579 23.8577 66.5495 24.0773C66.4519 24.1887 66.3314 24.2777 66.1961 24.3379C66.0608 24.3982 65.9141 24.4283 65.766 24.4263H62.5752C62.4271 24.4284 62.2804 24.3983 62.1451 24.338C62.0098 24.2778 61.8892 24.1888 61.7918 24.0773C61.5829 23.858 61.4683 23.5655 61.4727 23.2626V1.10089H58.4679C56.8811 3.36386 55.2903 5.62322 53.6953 7.87895V22.3353C53.6953 22.4262 53.7102 22.5023 53.7116 22.5933C54.7924 24.1321 55.8718 25.6709 56.9499 27.2097C57.5446 28.057 58.1384 28.9056 58.7313 29.7556C59.4416 29.9134 60.1667 29.9953 60.8943 30H62.1163C64.5531 30 66.3711 29.3211 67.5705 27.9633V29.4148H74.6486V1.10089H66.8685V23.2626Z" fill="#4949A3"/>
<path d="M120.319 18.0108V8.84438C120.319 3.73821 117.92 1.18512 113.123 1.18512H106.569C101.771 1.18512 99.3723 3.73821 99.3723 8.84438V22.3353C99.3723 27.4406 101.771 29.9932 106.569 29.9932H113.124C117.921 29.9932 120.32 27.4406 120.32 22.3353V20.1303H112.544V23.2627C112.548 23.5654 112.434 23.8577 112.225 24.0774C112.128 24.1888 112.007 24.2777 111.872 24.338C111.736 24.3982 111.59 24.4284 111.442 24.4263H108.251C108.103 24.4284 107.956 24.3982 107.821 24.338C107.686 24.2777 107.565 24.1888 107.467 24.0774C107.259 23.858 107.144 23.5655 107.148 23.2627V18.0108H120.319ZM107.148 7.68348C107.144 7.3807 107.259 7.08836 107.467 6.86881C107.565 6.75738 107.686 6.66846 107.821 6.60821C107.956 6.54796 108.103 6.51781 108.251 6.51985H111.442C111.59 6.51781 111.736 6.54796 111.872 6.60821C112.007 6.66846 112.128 6.75738 112.225 6.86881C112.433 7.08875 112.547 7.38083 112.544 7.68348V12.9055H107.148V7.68348Z" fill="#4949A3"/>
<path d="M51.5702 10.0582L51.5715 10.0825L51.554 10.0744L51.5702 10.0582Z" fill="white"/>
<path d="M50.2682 10.0745C50.556 9.73369 50.871 9.41189 51.129 9.04801C52.7584 6.75607 54.3759 4.45824 55.9817 2.15454C56.2044 1.83682 56.4122 1.50823 56.6742 1.11176H56.1569C53.5513 1.11176 50.943 1.17014 48.3388 1.08596C47.1724 1.0493 46.4664 1.34666 45.7766 2.38265C43.3788 5.97942 40.8194 9.46756 38.3346 13.0059C37.1751 14.657 37.2009 15.8804 38.374 17.5314C38.6374 17.9008 38.894 18.2755 39.1574 18.6448C40.7488 20.8729 42.3496 23.0929 43.9287 25.3292C44.7637 26.5132 45.5675 27.7189 46.3727 28.9246C46.4572 29.0736 46.5824 29.1956 46.7337 29.2761C46.8849 29.3566 47.0559 29.3925 47.2268 29.3795C50.2003 29.3605 53.1738 29.37 56.1474 29.37H56.6511C56.5479 29.1799 56.4936 29.0536 56.4162 28.9423C55.7636 28.0054 55.1082 27.0694 54.4502 26.1344C52.366 23.1635 50.2736 20.2008 48.2044 17.2219C47.554 16.2864 47.2675 15.2314 47.7672 14.1533C48.1338 13.359 48.6579 12.6366 49.1249 11.8885C49.5051 11.2734 49.9016 10.6665 50.2913 10.0582L50.2682 10.0745ZM30.1961 15.2477C30.1961 19.7406 30.2029 24.2335 30.1852 28.7264C30.1852 29.2152 30.287 29.389 30.8125 29.3822C33.0854 29.3523 35.3584 29.3523 37.6313 29.3822C38.1174 29.3822 38.2084 29.2193 38.2043 28.7793C38.1853 26.2796 38.2043 23.7786 38.1812 21.2789C38.1622 20.9568 38.0577 20.6456 37.8784 20.3774C37.4398 19.6849 36.9375 19.0332 36.4826 18.3502C35.2429 16.486 35.0542 14.5484 36.211 12.5878C36.6795 11.7934 37.228 11.044 37.7711 10.2972C38.0656 9.90703 38.218 9.42797 38.2029 8.93939C38.1812 6.52706 38.1812 4.11427 38.2029 1.70104C38.2029 1.24754 38.0943 1.09411 37.6231 1.09954C35.3502 1.12126 33.0777 1.12126 30.8057 1.09954C30.3305 1.09954 30.1825 1.21631 30.1838 1.71326C30.2083 6.22653 30.1961 10.7371 30.1961 15.2477V15.2477Z" fill="#7272E9"/>
<path d="M90.4585 7.2232H89.2365C87.303 7.2232 85.719 7.68756 84.4843 8.61629V1.24487H76.7083V29.4121H83.2636V27.3238C84.463 29.108 86.4549 30 89.2392 30H90.4613C95.2588 30 97.6575 27.4469 97.6575 22.3408V14.8825C97.6539 9.77628 95.2542 7.2232 90.4585 7.2232ZM89.2067 23.2627C89.2102 23.5654 89.0957 23.8576 88.8876 24.0774C88.7901 24.1888 88.6695 24.2777 88.5342 24.338C88.3989 24.3982 88.2522 24.4284 88.1041 24.4263H84.9133C84.7653 24.4285 84.6185 24.3983 84.4832 24.3381C84.3479 24.2778 84.2274 24.1889 84.1299 24.0774C83.9212 23.8579 83.8067 23.5655 83.8108 23.2627V13.9537C83.8069 13.651 83.9214 13.3586 84.1299 13.1391C84.2274 13.0276 84.3479 12.9386 84.4832 12.8783C84.6185 12.8181 84.7653 12.788 84.9133 12.7901H88.1041C88.2522 12.7881 88.3989 12.8182 88.5342 12.8785C88.6695 12.9387 88.7901 13.0276 88.8876 13.1391C89.0955 13.359 89.2099 13.6511 89.2067 13.9537V23.2627Z" fill="#4949A3"/>
<path fill-rule="evenodd" clip-rule="evenodd" d="M124 13.7825L139.545 13.7825V6.4652C139.545 5.33674 139.356 4.36515 138.976 3.55043C138.597 2.73571 138.075 2.10822 137.413 1.66797C136.75 1.22266 135.993 1 135.143 1C134.409 1 133.772 1.16193 133.23 1.48579C132.684 1.80966 132.256 2.24485 131.947 2.79137C131.634 3.33789 131.464 3.94514 131.439 4.61311H131.287C131.165 4.01092 130.948 3.48464 130.634 3.03427C130.315 2.5839 129.921 2.23473 129.45 1.98677C128.979 1.73375 128.458 1.60724 127.886 1.60724C127.097 1.60724 126.411 1.81472 125.829 2.22967C125.247 2.63956 124.797 3.24934 124.478 4.059C124.159 4.86359 124 5.85796 124 7.04209V13.7825ZM136.175 7.5886V9.56215H132.896V7.52788C132.896 7.09775 132.962 6.73087 133.093 6.42725C133.225 6.11857 133.417 5.88073 133.67 5.71374C133.923 5.54674 134.232 5.46325 134.596 5.46325C135.118 5.46325 135.512 5.64036 135.781 5.99459C136.044 6.34881 136.175 6.88015 136.175 7.5886ZM130.285 7.8315V9.56215L127.309 9.56215V7.77078C127.309 7.2445 127.439 6.80931 127.697 6.4652C127.95 6.1211 128.316 5.94905 128.797 5.94905C129.116 5.94905 129.387 6.03001 129.609 6.19194C129.827 6.34881 129.994 6.56894 130.11 6.85232C130.227 7.1357 130.285 7.4621 130.285 7.8315ZM139.545 29.5V23.5186C139.545 21.9398 139.237 20.571 138.619 19.4121C137.997 18.2533 137.106 17.3576 135.948 16.7251C134.784 16.0925 133.392 15.7763 131.773 15.7763C130.153 15.7763 128.764 16.0951 127.606 16.7327C126.442 17.3652 125.551 18.266 124.934 19.4349C124.311 20.5988 124 21.9803 124 23.5794V29.5H139.545ZM135.963 23.6705V25.2796H127.583V23.7919C127.583 22.9822 127.707 22.2991 127.955 21.7424C128.203 21.1807 128.63 20.7557 129.237 20.4672C129.845 20.1737 130.69 20.027 131.773 20.027C132.856 20.027 133.701 20.1712 134.308 20.4596C134.915 20.743 135.343 21.158 135.591 21.7045C135.839 22.246 135.963 22.9013 135.963 23.6705Z" fill="#4949A3"/>
</svg>
