<svg width="56" height="56" viewBox="0 0 56 56" fill="none" xmlns="http://www.w3.org/2000/svg">
<path d="M18.0976 47.25H7C6.53587 47.25 6.09075 47.0656 5.76256 46.7374C5.43437 46.4093 5.25 45.9641 5.25 45.5V21C5.25 20.5359 5.43437 20.0908 5.76256 19.7626C6.09075 19.4344 6.53587 19.25 7 19.25H49C49.4641 19.25 49.9092 19.4344 50.2374 19.7626C50.5656 20.0908 50.75 20.5359 50.75 21V45.5C50.75 45.9641 50.5656 46.4093 50.2374 46.7374C49.9092 47.0656 49.4641 47.25 49 47.25H37.9024" fill="#FAD85D"/>
<path d="M5.25 45.5C5.25 45.9641 5.43437 46.4093 5.76256 46.7374C6.09075 47.0656 6.53587 47.25 7 47.25H46.375V24.9952H5.25V45.5Z" fill="#FCE797"/>
<path d="M14 19.25V1.75H35L42 8.75V19.25" fill="#EDEDED"/>
<path d="M35 1.75V8.75H42" fill="#CCCCCC"/>
<path d="M7 19.25V8.75C7 8.28587 7.18437 7.84075 7.51256 7.51256C7.84075 7.18437 8.28587 7 8.75 7H13.9676V19.25H7Z" fill="#F4A93C"/>
<path d="M49 19.25V14C49 13.5359 48.8156 13.0908 48.4874 12.7626C48.1592 12.4344 47.7141 12.25 47.25 12.25H42V19.25H49Z" fill="#F4A93C"/>
<path d="M9.625 19.25L13.125 22.75H42.875L46.375 19.25" fill="#F6B940"/>
<path d="M16.625 27.125H39.375V28.875H16.625V27.125Z" fill="#F6B940"/>
<path d="M20.125 6.125H32.375V7.875H20.125V6.125Z" fill="#CCCCCC"/>
<path d="M18.375 11.375H37.625V13.125H18.375V11.375Z" fill="#CCCCCC"/>
<path d="M28 54.25C33.799 54.25 38.5 49.549 38.5 43.75C38.5 37.951 33.799 33.25 28 33.25C22.201 33.25 17.5 37.951 17.5 43.75C17.5 49.549 22.201 54.25 28 54.25Z" fill="#78A0D4"/>
<path d="M32.375 44.625V47.25H23.625V44.625H21.875V48.125C21.875 48.3571 21.9672 48.5796 22.1313 48.7437C22.2954 48.9078 22.5179 49 22.75 49H33.25C33.4821 49 33.7046 48.9078 33.8687 48.7437C34.0328 48.5796 34.125 48.3571 34.125 48.125V44.625H32.375Z" fill="#E2E7F6"/>
<path d="M28.0005 45.5C28.2325 45.5 28.455 45.4077 28.6191 45.2436L32.1191 41.7436L30.8818 40.5064L28.8755 42.5127V35.875H27.1255V42.5127L25.1191 40.5064L23.8818 41.7436L27.3818 45.2436C27.5459 45.4077 27.7684 45.5 28.0005 45.5Z" fill="#E2E7F6"/>
<path d="M49.875 18.536V14C49.875 13.3038 49.5984 12.6361 49.1062 12.1438C48.6139 11.6516 47.9462 11.375 47.25 11.375H42.875V8.75C42.875 8.51795 42.7827 8.29543 42.6186 8.13138L35.6186 1.13137C35.4546 0.967269 35.232 0.87505 35 0.875H14C13.7679 0.875 13.5454 0.967187 13.3813 1.13128C13.2172 1.29538 13.125 1.51794 13.125 1.75V6.125H8.75C8.05381 6.125 7.38613 6.40156 6.89384 6.89384C6.40156 7.38613 6.125 8.05381 6.125 8.75V18.536C5.61496 18.7163 5.17308 19.0498 4.85983 19.4909C4.54657 19.9319 4.37724 20.459 4.375 21V45.5C4.375 46.1962 4.65156 46.8639 5.14384 47.3562C5.63613 47.8484 6.30381 48.125 7 48.125H17.5C18.3637 50.198 19.8217 51.9689 21.6903 53.2146C23.5588 54.4603 25.7543 55.125 28 55.125C30.2457 55.125 32.4412 54.4603 34.3097 53.2146C36.1783 51.9689 37.6363 50.198 38.5 48.125H49C49.6962 48.125 50.3639 47.8484 50.8562 47.3562C51.3484 46.8639 51.625 46.1962 51.625 45.5V21C51.6228 20.459 51.4534 19.9319 51.1402 19.4909C50.8269 19.0498 50.385 18.7163 49.875 18.536ZM47.25 13.125C47.4821 13.125 47.7046 13.2172 47.8687 13.3813C48.0328 13.5454 48.125 13.7679 48.125 14V18.375H42.875V13.125H47.25ZM44.2627 20.125L42.5127 21.875H13.4872L11.7372 20.125H44.2627ZM35.875 3.86225L39.8877 7.875H35.875V3.86225ZM34.125 2.625V8.75C34.125 8.98206 34.2172 9.20462 34.3813 9.36872C34.5454 9.53281 34.7679 9.625 35 9.625H41.125V18.375H14.875V2.625H34.125ZM8.75 7.875H13.125V18.375H7.875V8.75C7.875 8.51794 7.96719 8.29538 8.13128 8.13128C8.29538 7.96719 8.51794 7.875 8.75 7.875ZM28 53.375C26.0964 53.375 24.2355 52.8105 22.6526 51.7529C21.0698 50.6953 19.8362 49.1921 19.1077 47.4333C18.3792 45.6746 18.1886 43.7393 18.5599 41.8723C18.9313 40.0052 19.848 38.2902 21.1941 36.9441C22.5402 35.598 24.2552 34.6813 26.1223 34.3099C27.9893 33.9386 29.9246 34.1292 31.6833 34.8577C33.4421 35.5862 34.9453 36.8198 36.0029 38.4026C37.0605 39.9855 37.625 41.8464 37.625 43.75C37.622 46.3018 36.607 48.7482 34.8026 50.5526C32.9982 52.357 30.5518 53.372 28 53.375ZM49.875 45.5C49.875 45.7321 49.7828 45.9546 49.6187 46.1187C49.4546 46.2828 49.2321 46.375 49 46.375H39.0574C39.4612 44.7022 39.4802 42.9596 39.113 41.2784C38.7458 39.5972 38.0019 38.0212 36.9374 36.6691C35.8729 35.317 34.5154 34.2241 32.9674 33.4726C31.4193 32.7212 29.7208 32.3307 28 32.3307C26.2792 32.3307 24.5807 32.7212 23.0326 33.4726C21.4845 34.2241 20.1271 35.317 19.0626 36.6691C17.9981 38.0212 17.2542 39.5972 16.887 41.2784C16.5198 42.9596 16.5388 44.7022 16.9426 46.375H7C6.76794 46.375 6.54538 46.2828 6.38128 46.1187C6.21719 45.9546 6.125 45.7321 6.125 45.5V21C6.125 20.7679 6.21719 20.5454 6.38128 20.3813C6.54538 20.2172 6.76794 20.125 7 20.125H9.26275L12.5064 23.3686C12.6704 23.5327 12.893 23.625 13.125 23.625H42.875C43.107 23.625 43.3296 23.5327 43.4936 23.3686L46.7373 20.125H49C49.2321 20.125 49.4546 20.2172 49.6187 20.3813C49.7828 20.5454 49.875 20.7679 49.875 21V45.5Z" fill="#31415F"/>
<path d="M16.625 27.125H39.375V28.875H16.625V27.125Z" fill="#31415F"/>
<path d="M20.125 6.125H32.375V7.875H20.125V6.125Z" fill="#31415F"/>
<path d="M18.375 11.375H37.625V13.125H18.375V11.375Z" fill="#31415F"/>
<path d="M32.375 47.25H23.625V44.625H21.875V48.125C21.875 48.3571 21.9672 48.5796 22.1313 48.7437C22.2954 48.9078 22.5179 49 22.75 49H33.25C33.4821 49 33.7046 48.9078 33.8687 48.7437C34.0328 48.5796 34.125 48.3571 34.125 48.125V44.625H32.375V47.25Z" fill="#31415F"/>
<path d="M28.0005 45.5C28.2325 45.5 28.455 45.4077 28.6191 45.2436L32.1191 41.7436L30.8818 40.5064L28.8755 42.5127V35.875H27.1255V42.5127L25.1191 40.5064L23.8818 41.7436L27.3818 45.2436C27.5459 45.4077 27.7684 45.5 28.0005 45.5Z" fill="#31415F"/>
</svg>
