<svg width="26" height="26" viewBox="0 0 26 26" fill="none" xmlns="http://www.w3.org/2000/svg">
<circle cx="13" cy="13" r="13" fill="#EA3D2F" fill-opacity="0.2"/>
<path d="M18.5944 9.36357L14.9584 12.9999L18.5944 16.636C19.1352 17.177 19.1352 18.0534 18.5944 18.5945C18.3241 18.8647 17.9699 18.9999 17.6158 18.9999C17.2611 18.9999 16.9067 18.8649 16.6367 18.5945L13 14.9579L9.36357 18.5944C9.09338 18.8647 8.73906 18.9999 8.38465 18.9999C8.03033 18.9999 7.67626 18.8649 7.40583 18.5944C6.865 18.0536 6.865 17.1772 7.40583 16.636L11.0416 12.9998L7.40562 9.36357C6.86479 8.82274 6.86479 7.94614 7.40562 7.40531C7.94634 6.8649 8.82243 6.8649 9.36336 7.40531L13 11.0416L16.6363 7.40531C17.1773 6.8649 18.0535 6.8649 18.5942 7.40531C19.1352 7.94614 19.1352 8.82274 18.5944 9.36357Z" fill="#EA3D2F"/>
</svg>
