<svg width="56" height="56" viewBox="0 0 56 56" fill="none" xmlns="http://www.w3.org/2000/svg">
<g clip-path="url(#clip0)">
<path d="M51.51 21.019L47.9085 17.416V10.2763C47.9085 7.8637 45.9457 5.90087 43.5331 5.90087H36.4011L30.8253 0.321816C30.6202 0.116716 30.342 0.00131264 30.0519 0.00120325L25.9769 0C25.9768 0 25.9767 0 25.9766 0C25.6866 0 25.4084 0.115184 25.2034 0.320175L19.6192 5.90098H12.4672C10.0546 5.90098 8.09176 7.86381 8.09176 10.2764V17.4275L4.49272 21.0182C3.42784 22.0826 2.84131 23.4979 2.84131 25.0036V50.3655C2.84131 51.8832 3.44556 53.2616 4.42479 54.2757C4.4459 54.301 4.46789 54.3258 4.49163 54.3497C4.51525 54.3733 4.53998 54.3951 4.56513 54.4161C5.57926 55.3955 6.95786 56 8.47582 56H23.0779C23.682 56 24.1717 55.5102 24.1717 54.9061C24.1717 54.3021 23.682 53.8123 23.0779 53.8123H8.47571C7.92364 53.8123 7.40197 53.6811 6.93883 53.4493L19.8321 40.556L24.0297 44.7511C25.0939 45.8147 26.5082 46.4002 28.0126 46.4002H28.0144C29.5194 46.3998 30.9341 45.8133 31.998 44.7487L36.1781 40.566L49.0615 53.4493C48.5984 53.681 48.0767 53.8123 47.5246 53.8123H32.9227C32.3185 53.8123 31.8288 54.3021 31.8288 54.9061C31.8288 55.5102 32.3185 56 32.9227 56H47.5248C49.0425 56 50.4212 55.3956 51.4353 54.4163C51.4605 54.3952 51.4854 54.3733 51.509 54.3497C51.5328 54.3258 51.5547 54.301 51.5759 54.2756C52.5551 53.2615 53.1593 51.8831 53.1593 50.3655V25.002C53.1592 23.4977 52.5736 22.0832 51.51 21.019ZM47.9086 20.5106L49.9626 22.5655C50.1523 22.7553 50.3162 22.9638 50.4546 23.1861L47.9086 25.7337V20.5106ZM26.4294 2.18784L29.5982 2.18894L33.3079 5.90098H22.7139L26.4294 2.18784ZM6.03857 22.5664L8.09187 20.5178V25.7301L5.54655 23.1864C5.68493 22.9642 5.84901 22.7558 6.03857 22.5664ZM5.39188 51.9024C5.1602 51.4393 5.02904 50.9177 5.02904 50.3656V25.762L18.2847 39.0095L5.39188 51.9024ZM30.4507 43.2023C29.7999 43.8535 28.9345 44.2122 28.0138 44.2125C28.0135 44.2125 28.0132 44.2125 28.0128 44.2125C27.0926 44.2125 26.2273 43.8542 25.5764 43.2036L10.2796 27.9164V10.2763C10.2796 9.07002 11.261 8.0886 12.4673 8.0886H43.5332C44.7395 8.0886 45.7209 9.07002 45.7209 10.2763V17.7293C45.7105 17.8163 45.7105 17.904 45.7209 17.9909V27.9226L30.4507 43.2023ZM50.9715 50.3656C50.9715 50.9177 50.8403 51.4393 50.6086 51.9024L37.7248 39.0186L50.9715 25.7639V50.3656Z" fill="#54657E"/>
<path d="M28.0006 53.8119C27.7129 53.8119 27.4307 53.9289 27.2272 54.1324C27.0238 54.3359 26.9067 54.6181 26.9067 54.9058C26.9067 55.1935 27.0238 55.4757 27.2272 55.6791C27.4307 55.8837 27.7129 55.9996 28.0006 55.9996C28.2883 55.9996 28.5705 55.8837 28.774 55.6791C28.9774 55.4757 29.0945 55.1935 29.0945 54.9058C29.0945 54.6181 28.9774 54.3359 28.774 54.1324C28.5705 53.929 28.2883 53.8119 28.0006 53.8119Z" fill="#54657E"/>
<path d="M28.0003 12.6759C22.3054 12.6759 17.6724 17.3089 17.6724 23.0038C17.6724 28.7765 22.3689 33.4731 28.1417 33.4731H34.7901C35.3942 33.4731 35.8839 32.9832 35.8839 32.3792C35.8839 31.7752 35.3942 31.2853 34.7901 31.2853H28.1417C23.5752 31.2853 19.8601 27.5702 19.8601 23.0038C19.8601 18.5153 23.5118 14.8636 28.0003 14.8636C32.4889 14.8636 36.1405 18.5153 36.1405 23.0038V25.2454C36.1405 26.107 35.4396 26.8078 34.5781 26.8078C33.7165 26.8078 33.0156 26.107 33.0156 25.2454V22.7134C33.0156 19.7185 30.5791 17.2821 27.5842 17.2821C24.435 17.2821 21.873 19.8441 21.873 22.9934C21.873 26.1425 24.4351 28.7046 27.5842 28.7046H29.3243C29.9285 28.7046 30.4182 28.2147 30.4182 27.6107C30.4182 27.0067 29.9285 26.5168 29.3243 26.5168H27.5842C25.6414 26.5168 24.0608 24.9362 24.0608 22.9933C24.0608 21.0504 25.6414 19.4698 27.5842 19.4698C29.3728 19.4698 30.8279 20.925 30.8279 22.7134V25.2454C30.8279 27.3133 32.5101 28.9955 34.5781 28.9955C36.646 28.9955 38.3283 27.3133 38.3283 25.2454V23.0038C38.3282 17.3089 33.6951 12.6759 28.0003 12.6759Z" fill="#1971BD"/>
</g>
<defs>
<clipPath id="clip0">
<rect width="56" height="56" fill="white"/>
</clipPath>
</defs>
</svg>
