<svg width="56" height="56" viewBox="0 0 56 56" fill="none" xmlns="http://www.w3.org/2000/svg">
<path d="M54.5478 9.78196H20.0343V8.41729C20.0343 6.41573 18.406 4.78735 16.4044 4.78735H10.7716C8.77002 4.78735 7.14164 6.41573 7.14164 8.41729V9.78196H1.45195C0.650016 9.78196 0 10.4322 0 11.234C0 12.0359 0.650016 12.686 1.45195 12.686H7.14142V14.0502C7.14142 16.0518 8.7698 17.6802 10.7714 17.6802H16.4043C18.4058 17.6802 20.0342 16.0518 20.0342 14.0502V12.686H54.5478C55.3498 12.686 55.9998 12.0357 55.9998 11.234C55.9999 10.4322 55.3498 9.78196 54.5478 9.78196ZM17.1304 14.0502C17.1304 14.4505 16.8047 14.7762 16.4044 14.7762H10.7715C10.3712 14.7762 10.0454 14.4505 10.0454 14.0502V8.41729C10.0454 8.01698 10.3712 7.69126 10.7715 7.69126H16.4044C16.8047 7.69126 17.1304 8.01698 17.1304 8.41729V14.0502Z" fill="#54657E"/>
<path d="M54.548 25.9542H48.8585V24.589C48.8585 22.5875 47.2301 20.9591 45.2285 20.9591H39.5956C37.594 20.9591 35.9657 22.5875 35.9657 24.589V25.9542H1.45195C0.650016 25.9542 0 26.6043 0 27.4061C0 28.2079 0.650016 28.8581 1.45195 28.8581H35.9656V30.2219C35.9656 32.2234 37.5939 33.8518 39.5955 33.8518H45.2284C47.23 33.8518 48.8584 32.2234 48.8584 30.2219V28.8581H54.5479C55.3499 28.8581 55.9999 28.2078 55.9999 27.4061C56 26.6043 55.35 25.9542 54.548 25.9542ZM45.9545 30.222C45.9545 30.6223 45.6287 30.948 45.2284 30.948H39.5955C39.1952 30.948 38.8695 30.6223 38.8695 30.222V24.589C38.8695 24.1887 39.1952 23.863 39.5955 23.863H45.2284C45.6287 23.863 45.9545 24.1887 45.9545 24.589V30.222Z" fill="#1971BD"/>
<path d="M54.548 43.314H30.2348V41.9498C30.2348 39.9482 28.6064 38.3198 26.6048 38.3198H20.9719C18.9703 38.3198 17.342 39.9482 17.342 41.9498V43.314H1.45195C0.650016 43.314 0 43.9642 0 44.766C0 45.5678 0.650016 46.2179 1.45195 46.2179H17.3418V47.5826C17.3418 49.5841 18.9702 51.2125 20.9718 51.2125H26.6047C28.6063 51.2125 30.2346 49.5841 30.2346 47.5826V46.2179H54.5479C55.3499 46.2179 55.9999 45.5677 55.9999 44.766C56 43.964 55.35 43.314 54.548 43.314ZM27.3307 47.5827C27.3307 47.983 27.005 48.3087 26.6047 48.3087H20.9718C20.5715 48.3087 20.2458 47.983 20.2458 47.5827V41.9498C20.2458 41.5494 20.5715 41.2237 20.9718 41.2237H26.6047C27.005 41.2237 27.3307 41.5494 27.3307 41.9498V47.5827Z" fill="#54657E"/>
</svg>
